HIERARCHY
ROOT pelvis
{
	OFFSET 0.003123 -0.351407 0.012037
	CHANNELS 6 Xposition Yposition Zposition Zrotation Yrotation Xrotation 
	JOINT left_hip
	{
		OFFSET 0.058189 -0.092763 -0.026001
		CHANNELS 3 Zrotation Yrotation Xrotation
		JOINT left_knee
		{
			OFFSET 0.054695 -0.378753 -0.009396
			CHANNELS 3 Zrotation Yrotation Xrotation
			JOINT left_ankle
			{
				OFFSET -0.043453 -0.403059 -0.031876
				CHANNELS 3 Zrotation Yrotation Xrotation
				JOINT left_foot
				{
					OFFSET 0.047257 -0.057997 0.118216
					CHANNELS 3 Zrotation Yrotation Xrotation
					End Site
					{
						OFFSET 0.000000 0.000000 0.000000
					}
				}
			}
		}
	}
	JOINT right_hip
	{
		OFFSET -0.063267 -0.103908 -0.021250
		CHANNELS 3 Zrotation Yrotation Xrotation
		JOINT right_knee
		{
			OFFSET -0.044210 -0.362380 -0.016824
			CHANNELS 3 Zrotation Yrotation Xrotation
			JOINT right_ankle
			{
				OFFSET 0.015417 -0.410728 -0.020192
				CHANNELS 3 Zrotation Yrotation Xrotation
				JOINT right_foot
				{
					OFFSET -0.038812 -0.058328 0.119049
					CHANNELS 3 Zrotation Yrotation Xrotation
					End Site
					{
						OFFSET 0.000000 0.000000 0.000000
					}
				}
			}
		}
	}
	JOINT spine_1
	{
		OFFSET -0.002763 0.109891 -0.027618
		CHANNELS 3 Zrotation Yrotation Xrotation
		JOINT spine_2
		{
			OFFSET 0.009448 0.131853 -0.005940
			CHANNELS 3 Zrotation Yrotation Xrotation
			JOINT spine_3
			{
				OFFSET -0.011330 0.052235 0.028447
				CHANNELS 3 Zrotation Yrotation Xrotation
				JOINT neck
				{
					OFFSET -0.012164 0.165167 -0.031615
					CHANNELS 3 Zrotation Yrotation Xrotation
					JOINT head
					{
						OFFSET 0.024783 0.160452 0.020737
						CHANNELS 3 Zrotation Yrotation Xrotation
						End Site
						{
							OFFSET 0.000000 0.000000 0.000000
						}
					}
				}
				JOINT left_collar
				{
					OFFSET 0.046364 0.084944 -0.007220
					CHANNELS 3 Zrotation Yrotation Xrotation
					JOINT left_shoulder
					{
						OFFSET 0.119239 0.057728 -0.015461
						CHANNELS 3 Zrotation Yrotation Xrotation
						JOINT left_elbow
						{
							OFFSET 0.254123 -0.072151 -0.042459
							CHANNELS 3 Zrotation Yrotation Xrotation
							JOINT left_wrist
							{
								OFFSET 0.251987 0.023221 -0.002472
								CHANNELS 3 Zrotation Yrotation Xrotation
								JOINT left_index_1
								{
									OFFSET 0.101902 -0.008688 0.019351
									CHANNELS 3 Zrotation Yrotation Xrotation
									JOINT left_index_2
									{
										OFFSET 0.030149 -0.011154 0.001151
										CHANNELS 3 Zrotation Yrotation Xrotation
										JOINT left_index_3
										{
											OFFSET 0.006504 -0.021577 -0.002433
											CHANNELS 3 Zrotation Yrotation Xrotation
											End Site
											{
												OFFSET 0.000000 0.000000 0.000000
											}
										}
									}
								}
								JOINT left_middle_1
								{
									OFFSET 0.109398 -0.006328 -0.003981
									CHANNELS 3 Zrotation Yrotation Xrotation
									JOINT left_middle_2
									{
										OFFSET 0.026472 -0.015218 -0.004641
										CHANNELS 3 Zrotation Yrotation Xrotation
										JOINT left_middle_3
										{
											OFFSET 0.005022 -0.023347 -0.001911
											CHANNELS 3 Zrotation Yrotation Xrotation
											End Site
											{
												OFFSET 0.000000 0.000000 0.000000
											}
										}
									}
								}
								JOINT left_pinky_1
								{
									OFFSET 0.084047 -0.014539 -0.043750
									CHANNELS 3 Zrotation Yrotation Xrotation
									JOINT left_pinky_2
									{
										OFFSET 0.012124 -0.014448 -0.005375
										CHANNELS 3 Zrotation Yrotation Xrotation
										JOINT left_pinky_3
										{
											OFFSET 0.003798 -0.018853 0.000167
											CHANNELS 3 Zrotation Yrotation Xrotation
											End Site
											{
												OFFSET 0.000000 0.000000 0.000000
											}
										}
									}
								}
								JOINT left_ring_1
								{
									OFFSET 0.097444 -0.009268 -0.027345
									CHANNELS 3 Zrotation Yrotation Xrotation
									JOINT left_ring_2
									{
										OFFSET 0.023561 -0.016057 -0.001895
										CHANNELS 3 Zrotation Yrotation Xrotation
										JOINT left_ring_3
										{
											OFFSET 0.004257 -0.023548 0.000814
											CHANNELS 3 Zrotation Yrotation Xrotation
											End Site
											{
												OFFSET 0.000000 0.000000 0.000000
											}
										}
									}
								}
								JOINT left_thumb_1
								{
									OFFSET 0.040636 -0.017977 0.025611
									CHANNELS 3 Zrotation Yrotation Xrotation
									JOINT left_thumb_2
									{
										OFFSET 0.021637 -0.017639 0.011623
										CHANNELS 3 Zrotation Yrotation Xrotation
										JOINT left_thumb_3
										{
											OFFSET 0.024002 -0.008356 0.006548
											CHANNELS 3 Zrotation Yrotation Xrotation
											End Site
											{
												OFFSET 0.000000 0.000000 0.000000
											}
										}
									}
								}
							}
						}
					}
				}
				JOINT right_collar
				{
					OFFSET -0.047695 0.084339 -0.013400
					CHANNELS 3 Zrotation Yrotation Xrotation
					JOINT right_shoulder
					{
						OFFSET -0.102578 0.053524 -0.012669
						CHANNELS 3 Zrotation Yrotation Xrotation
						JOINT right_elbow
						{
							OFFSET -0.271150 -0.036492 -0.026467
							CHANNELS 3 Zrotation Yrotation Xrotation
							JOINT right_wrist
							{
								OFFSET -0.249267 -0.004533 -0.015325
								CHANNELS 3 Zrotation Yrotation Xrotation
								JOINT right_index_1
								{
									OFFSET -0.099881 -0.011783 0.019600
									CHANNELS 3 Zrotation Yrotation Xrotation
									JOINT right_index_2
									{
										OFFSET -0.030148 -0.011154 0.001151
										CHANNELS 3 Zrotation Yrotation Xrotation
										JOINT right_index_3
										{
											OFFSET -0.006505 -0.021577 -0.002432
											CHANNELS 3 Zrotation Yrotation Xrotation
											End Site
											{
												OFFSET 0.000000 0.000000 0.000000
											}
										}
									}
								}
								JOINT right_middle_1
								{
									OFFSET -0.107376 -0.009422 -0.003734
									CHANNELS 3 Zrotation Yrotation Xrotation
									JOINT right_middle_2
									{
										OFFSET -0.026472 -0.015218 -0.004641
										CHANNELS 3 Zrotation Yrotation Xrotation
										JOINT right_middle_3
										{
											OFFSET -0.005022 -0.023347 -0.001911
											CHANNELS 3 Zrotation Yrotation Xrotation
											End Site
											{
												OFFSET 0.000000 0.000000 0.000000
											}
										}
									}
								}
								JOINT right_pinky_1
								{
									OFFSET -0.082027 -0.017634 -0.043503
									CHANNELS 3 Zrotation Yrotation Xrotation
									JOINT right_pinky_2
									{
										OFFSET -0.012123 -0.014448 -0.005374
										CHANNELS 3 Zrotation Yrotation Xrotation
										JOINT right_pinky_3
										{
											OFFSET -0.003798 -0.018852 0.000167
											CHANNELS 3 Zrotation Yrotation Xrotation
											End Site
											{
												OFFSET 0.000000 0.000000 0.000000
											}
										}
									}
								}
								JOINT right_ring_1
								{
									OFFSET -0.095423 -0.012362 -0.027099
									CHANNELS 3 Zrotation Yrotation Xrotation
									JOINT right_ring_2
									{
										OFFSET -0.023561 -0.016057 -0.001895
										CHANNELS 3 Zrotation Yrotation Xrotation
										JOINT right_ring_3
										{
											OFFSET -0.004257 -0.023548 0.000816
											CHANNELS 3 Zrotation Yrotation Xrotation
											End Site
											{
												OFFSET 0.000000 0.000000 0.000000
											}
										}
									}
								}
								JOINT right_thumb_1
								{
									OFFSET -0.038613 -0.021074 0.025861
									CHANNELS 3 Zrotation Yrotation Xrotation
									JOINT right_thumb_2
									{
										OFFSET -0.021636 -0.017639 0.011623
										CHANNELS 3 Zrotation Yrotation Xrotation
										JOINT right_thumb_3
										{
											OFFSET -0.024004 -0.008353 0.006547
											CHANNELS 3 Zrotation Yrotation Xrotation
											End Site
											{
												OFFSET 0.000000 0.000000 0.000000
											}
										}
									}
								}
							}
						}
					}
				}
			}
		}
	}
}
MOTION
Frames: 7
Frame Time: 0.050000
-0.622787 1.015884 -0.412537 164.985050 86.060859 136.200054 8.824623 -18.219617 33.397447 -17.370846 -4.169541 17.768764 6.080216 20.931240 43.537421 0.000000 0.000000 0.000000 -1.504136 -5.038733 20.041144 -7.260078 -11.533901 32.245602 -4.428660 -5.901242 26.751921 0.000000 0.000000 0.000000 -22.505007 -6.810848 56.775673 7.578594 6.230590 -44.740130 22.497229 42.990659 44.285837 9.945686 5.862777 -21.020783 0.000000 0.000000 0.000000 -14.127641 -25.242414 -19.378602 -60.044693 -6.950318 -12.993136 -124.404785 -34.471197 51.601382 6.025140 3.749571 23.323851 -4.418258 -1.388478 -0.451596 27.587966 -3.511366 4.846955 0.000000 0.000000 0.000000 6.957978 -4.724875 -1.742896 17.218214 -1.244037 13.921367 0.000000 0.000000 0.000000 32.527424 -9.666935 2.762462 -6.058717 2.728377 11.248212 0.000000 0.000000 0.000000 13.747825 -0.420452 0.829326 11.775019 0.176921 8.139549 0.000000 0.000000 0.000000 0.049871 10.747604 9.703955 -5.867088 -13.268903 -2.101076 0.000000 0.000000 0.000000 28.572995 -23.091119 14.624099 48.431136 29.765505 3.358483 133.338193 55.435672 125.371208 -1.659799 -0.699191 -24.805877 -7.251773 1.406170 -0.369302 -17.884908 0.801918 -12.078765 0.000000 0.000000 0.000000 -3.645414 4.781569 -2.409714 -15.054892 -0.148879 -3.689119 0.000000 0.000000 0.000000 -3.940760 9.163723 -13.938173 -14.142914 -1.622959 8.401893 0.000000 0.000000 0.000000 -0.770146 5.315402 -4.166143 -17.294664 -1.028212 -5.655472 0.000000 0.000000 0.000000 -17.855321 -0.931325 -10.112909 17.508447 1.615425 3.602140 0.000000 0.000000 0.000000 
-0.645401 1.007504 -0.412537 175.123987 84.727578 149.708685 4.602824 -19.577763 38.928344 -11.798492 -2.377236 5.969322 6.786841 20.403838 41.946252 0.000000 0.000000 0.000000 -0.725968 -2.864050 13.964709 -9.860057 -13.033797 35.192006 -3.357700 -4.654370 23.142025 0.000000 0.000000 0.000000 -22.320555 -7.705574 57.653788 4.509061 -1.548732 -51.242614 37.939936 40.968583 50.983309 2.676642 3.905109 -24.589103 0.000000 0.000000 0.000000 -13.920064 -28.047127 -33.224464 -63.257549 10.888738 -14.371993 -126.781676 -34.050076 62.048750 5.761958 3.795110 18.109664 -5.562370 2.221262 0.860379 28.281101 -3.414243 0.178524 0.000000 0.000000 0.000000 7.289060 -2.917760 -0.573138 13.181913 -0.011844 11.724384 0.000000 0.000000 0.000000 31.199771 -8.627118 2.661343 -7.309966 3.236656 11.327797 0.000000 0.000000 0.000000 10.623568 0.718566 1.431594 14.059963 0.445433 4.539760 0.000000 0.000000 0.000000 0.830208 11.915537 9.842294 -8.449469 -15.472860 -2.014757 0.000000 0.000000 0.000000 20.222751 -19.456215 20.393379 51.853197 31.715494 17.158494 149.219706 62.437547 160.333118 -2.069867 -1.733786 -35.234679 -11.553715 1.210987 0.670492 -14.277726 0.258365 -16.604837 0.000000 0.000000 0.000000 -4.140828 5.632671 -2.942088 -19.149251 -1.111103 -7.348545 0.000000 0.000000 0.000000 -4.507670 10.481092 -16.801210 -12.829883 -1.891235 8.197889 0.000000 0.000000 0.000000 0.771521 7.116457 -5.490266 -24.257628 -2.172506 -3.842774 0.000000 0.000000 0.000000 -22.505872 -2.934971 -10.517616 19.650966 8.950317 2.106308 0.000000 0.000000 0.000000 
-0.671783 1.003635 -0.417816 169.567095 80.396839 146.271012 0.013929 -18.222015 40.658199 -6.313822 -1.543105 -0.255531 7.830093 19.009309 37.152430 0.000000 0.000000 0.000000 -3.698809 -2.375595 9.238851 -12.712221 -14.883625 38.322979 -1.578915 -2.615581 22.315391 0.000000 0.000000 0.000000 -26.739372 -7.694624 58.266400 5.497771 5.129840 -43.394544 26.449369 46.348033 32.454448 7.345459 4.738280 -16.695215 0.000000 0.000000 0.000000 -14.568207 -31.809559 -19.571654 -62.148482 6.806283 -17.411583 -130.003777 -35.673785 60.681959 7.463292 3.838298 18.042540 -6.399873 1.912017 0.776558 28.023641 -3.403619 1.530783 0.000000 0.000000 0.000000 4.001592 -1.573082 -0.236661 21.650441 -2.001374 8.535892 0.000000 0.000000 0.000000 33.014259 -8.834065 3.701117 -3.387012 2.341810 10.619730 0.000000 0.000000 0.000000 13.428209 -0.343795 0.847679 11.711740 0.838871 10.624603 0.000000 0.000000 0.000000 0.103560 11.690547 10.115468 -8.229410 -10.334529 -0.501049 0.000000 0.000000 0.000000 20.576553 -16.829473 19.394666 53.774720 20.242204 3.555145 138.287582 53.399806 129.195646 -1.544704 -1.372120 -24.869027 -6.842030 1.846792 -0.462883 -17.966485 0.628571 -9.715937 0.000000 0.000000 0.000000 -4.829389 5.116940 -2.461469 -17.149669 -0.197266 -3.117293 0.000000 0.000000 0.000000 -6.429008 9.285065 -13.755215 -10.233573 -2.307476 9.840490 0.000000 0.000000 0.000000 -2.298349 4.802148 -3.778499 -15.797765 -1.239955 -3.111826 0.000000 0.000000 0.000000 -16.708044 -3.638888 -7.349230 15.804814 9.035108 1.271049 0.000000 0.000000 0.000000 
-0.690628 1.003635 -0.423096 165.906964 75.240020 144.434598 -1.583473 -16.150951 38.175917 -3.843901 -1.524017 -2.852870 8.665739 17.363825 35.723932 0.000000 0.000000 0.000000 -6.987156 -3.281946 6.373885 -15.484498 -15.121125 39.317494 -0.449954 -1.561915 22.327679 0.000000 0.000000 0.000000 -32.250226 -8.136937 59.087432 7.052567 -4.448107 -46.993945 44.086624 43.327824 44.760704 2.206029 1.231954 -20.597001 0.000000 0.000000 0.000000 -10.567270 -31.788403 -46.560680 -64.126954 29.671266 -15.915038 -128.863684 -35.522537 73.672802 2.753843 4.557750 9.329936 -0.763860 -2.802494 -0.910149 27.412870 -2.001435 4.647307 0.000000 0.000000 0.000000 8.062692 -5.294053 -2.087682 18.564113 -0.491335 9.181665 0.000000 0.000000 0.000000 34.617834 -10.724509 -2.670662 -3.788827 3.744689 13.430486 0.000000 0.000000 0.000000 15.945723 -3.790082 -2.104018 10.551100 1.526241 7.895397 0.000000 0.000000 0.000000 5.608811 11.067499 6.280325 -11.901541 -12.554074 -0.209905 0.000000 0.000000 0.000000 9.957638 -17.257064 39.390348 58.515915 42.527095 35.640258 -172.291550 68.828914 -141.118505 -4.590714 -2.805316 -45.322101 -10.950261 1.158777 1.685541 -17.223118 -1.023322 -19.254602 0.000000 0.000000 0.000000 -2.613492 5.885615 -3.338912 -17.734283 -1.687952 -9.229529 0.000000 0.000000 0.000000 2.242494 13.647713 -18.944296 -19.752659 -1.111843 7.896313 0.000000 0.000000 0.000000 6.229356 7.591020 -4.244971 -27.300408 -1.181833 -10.065711 0.000000 0.000000 0.000000 -27.558282 -0.264537 -11.197939 19.256356 2.786437 3.858455 0.000000 0.000000 0.000000 
-0.709473 1.012661 -0.428375 165.290185 77.657558 146.508244 -0.412262 -13.288956 33.887838 -3.012164 -1.437446 -2.418894 6.741846 16.994093 35.966454 0.000000 0.000000 0.000000 -5.318643 -2.642689 1.229070 -18.384375 -13.111953 39.176665 0.933664 0.182664 24.797416 0.000000 0.000000 0.000000 -28.183869 -7.429945 57.062517 -2.018992 -4.914205 -47.910939 46.838297 40.213332 36.129067 2.419622 2.429645 -10.987013 0.000000 0.000000 0.000000 -13.856607 -31.630834 -45.977994 -61.916177 35.456263 -17.898840 -129.103291 -32.113418 57.094922 6.567692 3.690557 18.606536 -5.488157 -0.487497 -0.005211 25.878089 -2.837452 2.378149 0.000000 0.000000 0.000000 3.933343 -3.701121 -1.511387 20.081727 -1.498616 9.207827 0.000000 0.000000 0.000000 29.125706 -10.342625 -1.597613 -1.133637 3.881487 17.949740 0.000000 0.000000 0.000000 10.587048 -0.535497 0.482618 16.394356 0.411021 4.234033 0.000000 0.000000 0.000000 0.632408 11.287020 9.272353 -7.522125 -13.298090 -1.783005 0.000000 0.000000 0.000000 12.096262 -6.654584 27.042316 60.097617 21.413307 18.664084 156.310496 65.862049 164.133674 -3.436335 -2.398793 -34.401228 -7.532579 1.346763 0.402749 -18.083731 -0.521069 -12.005331 0.000000 0.000000 0.000000 -2.988433 3.792261 -1.921753 -18.321747 -0.522974 -7.168895 0.000000 0.000000 0.000000 -2.470067 9.038138 -13.231863 -15.629743 -1.279235 6.923235 0.000000 0.000000 0.000000 1.527432 5.455905 -3.813812 -20.629517 -1.624733 -4.506178 0.000000 0.000000 0.000000 -21.802669 -0.567507 -9.807713 19.450813 3.136389 4.232870 0.000000 0.000000 0.000000 
-0.728317 1.027489 -0.433655 160.807393 74.896425 141.730753 -3.200787 -11.245822 33.178776 -0.736368 -1.195039 -3.541550 4.415121 16.227955 37.711184 0.000000 0.000000 0.000000 -9.248058 -4.466505 0.849366 -19.000540 -12.179748 38.088134 3.431592 1.932352 28.693869 0.000000 0.000000 0.000000 -38.533090 -7.923081 58.204800 9.778794 -0.714274 -41.355447 42.589804 52.999372 40.043841 8.326728 5.794579 -16.881273 0.000000 0.000000 0.000000 -10.122702 -30.835671 -37.573849 -64.783237 26.234036 -20.090519 -128.577147 -33.039732 69.546356 5.552090 3.645952 8.204316 -7.013530 -0.799192 0.113078 30.006873 -2.600855 2.937786 0.000000 0.000000 0.000000 5.738376 -6.089767 -2.855511 17.723440 -0.218463 13.052919 0.000000 0.000000 0.000000 30.735836 -9.331596 -1.513006 -5.366726 3.161882 11.449664 0.000000 0.000000 0.000000 13.022979 -2.815112 -1.430348 13.963605 1.473289 9.311484 0.000000 0.000000 0.000000 2.026517 9.648446 6.641605 -7.699438 -10.127682 -0.992234 0.000000 0.000000 0.000000 10.427534 -18.494817 47.840180 59.013326 48.610226 29.742163 177.237794 69.039152 -160.704281 -3.352032 -2.322810 -41.243676 -10.891440 0.644866 1.556111 -16.952199 -0.166685 -19.063960 0.000000 0.000000 0.000000 -1.884673 6.377426 -3.655898 -16.624223 -1.461501 -7.502889 0.000000 0.000000 0.000000 2.478597 12.124373 -16.604113 -20.280940 -1.013111 8.004910 0.000000 0.000000 0.000000 3.993878 7.185542 -4.498644 -26.049945 -2.106029 -4.494465 0.000000 0.000000 0.000000 -25.162880 -0.704709 -10.475175 19.506027 4.037457 3.637365 0.000000 0.000000 0.000000 
-0.739624 1.043606 -0.438934 161.756922 81.461271 143.869000 -2.149228 -11.585833 33.916510 -0.130286 -1.197149 -7.033475 1.879683 17.530761 39.499722 0.000000 0.000000 0.000000 -5.277934 -2.816883 -2.966193 -21.880293 -9.603042 36.932925 12.633288 7.491346 31.276138 0.000000 0.000000 0.000000 -30.500514 -6.950843 56.413493 6.420713 -0.705772 -47.123687 45.489853 49.241539 46.247959 5.651289 4.561645 -17.501473 0.000000 0.000000 0.000000 -9.956055 -32.588335 -47.396858 -61.911054 35.758569 -19.509411 -130.227223 -31.502044 68.341836 6.845429 3.654083 10.856068 -6.151727 -0.554910 0.112564 28.351741 -2.511153 2.465149 0.000000 0.000000 0.000000 6.091798 -5.841772 -2.618210 11.893307 0.525770 10.570104 0.000000 0.000000 0.000000 29.668108 -9.279819 -1.518383 -3.457544 3.335602 12.710457 0.000000 0.000000 0.000000 11.413081 -3.470942 -1.976378 10.953277 1.498452 9.129693 0.000000 0.000000 0.000000 4.998653 8.992415 4.794120 -13.452347 -13.024961 0.342595 0.000000 0.000000 0.000000 10.053247 -15.369178 42.598837 60.878993 46.155880 33.839795 -179.004990 70.814561 -156.964004 -4.415874 -2.486993 -42.153977 -8.842255 -0.170140 1.338916 -16.684389 0.259409 -17.116552 0.000000 0.000000 0.000000 -2.433666 4.306451 -2.352221 -20.935563 -1.378664 -7.877329 0.000000 0.000000 0.000000 2.610797 11.573593 -15.483226 -20.219342 -0.994246 7.963305 0.000000 0.000000 0.000000 3.253251 6.015102 -3.735616 -24.468931 -1.659874 -5.860759 0.000000 0.000000 0.000000 -25.772867 0.750868 -10.628603 22.186621 2.370259 5.441861 0.000000 0.000000 0.000000 
